<svg xmlns="http://www.w3.org/2000/svg" version="1.1" xmlns:xlink="http://www.w3.org/1999/xlink" xmlns:svgjs="http://svgjs.dev/svgjs" width="1000" height="623" viewBox="0 0 1000 623"><g transform="matrix(1,0,0,1,-0.6060606060606233,0.2522267206477409)"><svg viewBox="0 0 396 247" data-background-color="#ffffff" preserveAspectRatio="xMidYMid meet" height="623" width="1000" xmlns="http://www.w3.org/2000/svg" xmlns:xlink="http://www.w3.org/1999/xlink"><g id="tight-bounds" transform="matrix(1,0,0,1,0.2400000000000091,-0.09999999999999432)"><svg viewBox="0 0 395.52 247.2" height="247.2" width="395.52"><g><svg></svg></g><g><svg viewBox="0 0 395.52 247.2" height="247.2" width="395.52"><mask id="86ac0393-50ac-4d29-a576-b4e8cdff851b"><rect width="395.52" height="247.2" fill="white"></rect><g transform="matrix(1,0,0,1,0,75.75557928952867)" id="clone"><svg viewBox="0 0 395.52 95.68884142094265" height="95.68884142094265" width="395.52"><g><svg viewBox="0 0 395.52 95.68884142094265" height="95.68884142094265" width="395.52"><g><svg viewBox="0 0 395.52 95.68884142094265" height="95.68884142094265" width="395.52"><g><svg viewBox="0 0 395.52 95.68884142094265" height="95.68884142094265" width="395.52"><g id="SvgjsG3034"><svg viewBox="0 0 395.52 95.68884142094265" height="95.68884142094265" width="395.52" id="SvgjsSvg3033"><g><svg viewBox="0 0 395.52 95.68884142094265" height="95.68884142094265" width="395.52"><g transform="matrix(1,0,0,1,0,0)"><svg width="395.52" viewBox="-0.5999999046325684 -40.099998474121094 216.3400115966797 53.099998474121094" height="95.68884142094265" data-palette-color="#1c6e8c"><path d="M29.5-6.3L29.5-17.7 34.3-17.7 34.3-4.05Q31.7-1.9 28.25-0.75 24.8 0.4 21.05 0.4L21.05 0.4Q15.75 0.4 11.5-1.93 7.25-4.25 4.83-8.33 2.4-12.4 2.4-17.5L2.4-17.5Q2.4-22.6 4.83-26.7 7.25-30.8 11.53-33.1 15.8-35.4 21.15-35.4L21.15-35.4Q25.35-35.4 28.78-34.02 32.2-32.65 34.6-30L34.6-30 31.5-26.9Q27.3-30.95 21.35-30.95L21.35-30.95Q17.35-30.95 14.18-29.23 11-27.5 9.2-24.43 7.4-21.35 7.4-17.5L7.4-17.5Q7.4-13.7 9.2-10.63 11-7.55 14.18-5.8 17.35-4.05 21.3-4.05L21.3-4.05Q26-4.05 29.5-6.3L29.5-6.3ZM52.8-26.75Q58.3-26.75 61.22-24.05 64.15-21.35 64.15-16L64.15-16 64.15 0 59.6 0 59.6-3.5Q58.4-1.65 56.17-0.68 53.95 0.3 50.9 0.3L50.9 0.3Q46.45 0.3 43.77-1.85 41.1-4 41.1-7.5L41.1-7.5Q41.1-11 43.65-13.13 46.2-15.25 51.75-15.25L51.75-15.25 59.35-15.25 59.35-16.2Q59.35-19.3 57.55-20.95 55.75-22.6 52.25-22.6L52.25-22.6Q49.9-22.6 47.65-21.83 45.4-21.05 43.85-19.75L43.85-19.75 41.85-23.35Q43.9-25 46.75-25.88 49.6-26.75 52.8-26.75L52.8-26.75ZM51.7-3.4Q54.45-3.4 56.45-4.63 58.45-5.85 59.35-8.1L59.35-8.1 59.35-11.8 51.95-11.8Q45.85-11.8 45.85-7.7L45.85-7.7Q45.85-5.7 47.4-4.55 48.95-3.4 51.7-3.4L51.7-3.4ZM93.4-37.1L98.2-37.1 98.2 0 93.6 0 93.6-4.2Q92-2 89.55-0.85 87.1 0.3 84.15 0.3L84.15 0.3Q80.3 0.3 77.25-1.4 74.2-3.1 72.47-6.18 70.75-9.25 70.75-13.25L70.75-13.25Q70.75-17.25 72.47-20.3 74.2-23.35 77.25-25.05 80.3-26.75 84.15-26.75L84.15-26.75Q87-26.75 89.4-25.68 91.8-24.6 93.4-22.5L93.4-22.5 93.4-37.1ZM84.55-3.9Q87.05-3.9 89.1-5.08 91.15-6.25 92.3-8.38 93.45-10.5 93.45-13.25L93.45-13.25Q93.45-16 92.3-18.13 91.15-20.25 89.1-21.4 87.05-22.55 84.55-22.55L84.55-22.55Q82-22.55 79.97-21.4 77.95-20.25 76.77-18.13 75.6-16 75.6-13.25L75.6-13.25Q75.6-10.5 76.77-8.38 77.95-6.25 79.97-5.08 82-3.9 84.55-3.9L84.55-3.9ZM128.09-26.5L132.64-26.5 132.64-3.6Q132.64 3.35 129.19 6.68 125.74 10 118.89 10L118.89 10Q115.14 10 111.74 8.97 108.34 7.95 106.24 6.05L106.24 6.05 108.54 2.35Q110.39 3.95 113.12 4.88 115.84 5.8 118.74 5.8L118.74 5.8Q123.39 5.8 125.62 3.6 127.84 1.4 127.84-3.1L127.84-3.1 127.84-5.2Q126.14-3.15 123.67-2.13 121.19-1.1 118.29-1.1L118.29-1.1Q114.49-1.1 111.42-2.73 108.34-4.35 106.59-7.28 104.84-10.2 104.84-13.95L104.84-13.95Q104.84-17.7 106.59-20.63 108.34-23.55 111.42-25.15 114.49-26.75 118.29-26.75L118.29-26.75Q121.29-26.75 123.87-25.65 126.44-24.55 128.09-22.4L128.09-22.4 128.09-26.5ZM118.84-5.3Q121.44-5.3 123.52-6.4 125.59-7.5 126.77-9.47 127.94-11.45 127.94-13.95L127.94-13.95Q127.94-17.8 125.39-20.18 122.84-22.55 118.84-22.55L118.84-22.55Q114.79-22.55 112.24-20.18 109.69-17.8 109.69-13.95L109.69-13.95Q109.69-11.45 110.87-9.47 112.04-7.5 114.12-6.4 116.19-5.3 118.84-5.3L118.84-5.3ZM165.74-13.1Q165.74-12.55 165.64-11.65L165.64-11.65 144.14-11.65Q144.59-8.15 147.22-6.03 149.84-3.9 153.74-3.9L153.74-3.9Q158.49-3.9 161.39-7.1L161.39-7.1 164.04-4Q162.24-1.9 159.56-0.8 156.89 0.3 153.59 0.3L153.59 0.3Q149.39 0.3 146.14-1.43 142.89-3.15 141.12-6.25 139.34-9.35 139.34-13.25L139.34-13.25Q139.34-17.1 141.06-20.2 142.79-23.3 145.81-25.03 148.84-26.75 152.64-26.75L152.64-26.75Q156.44-26.75 159.42-25.03 162.39-23.3 164.06-20.2 165.74-17.1 165.74-13.1L165.74-13.1ZM152.64-22.7Q149.19-22.7 146.87-20.6 144.54-18.5 144.14-15.1L144.14-15.1 161.14-15.1Q160.74-18.45 158.42-20.58 156.09-22.7 152.64-22.7L152.64-22.7ZM185.79-5L187.29-1.55Q186.24-0.65 184.69-0.18 183.14 0.3 181.49 0.3L181.49 0.3Q177.49 0.3 175.29-1.85 173.09-4 173.09-8L173.09-8 173.09-22.55 168.59-22.55 168.59-26.5 173.09-26.5 173.09-32.3 177.89-32.3 177.89-26.5 185.49-26.5 185.49-22.55 177.89-22.55 177.89-8.2Q177.89-6.05 178.96-4.9 180.04-3.75 182.04-3.75L182.04-3.75Q184.24-3.75 185.79-5L185.79-5ZM196.69-3.95L212.74-3.95 212.74 0 190.54 0 190.54-3.1 206.19-22.55 190.84-22.55 190.84-26.5 212.34-26.5 212.34-23.35 196.69-3.95Z" opacity="1" transform="matrix(1,0,0,1,0,0)" fill="black" class="wordmark-text-0" id="SvgjsPath3032" stroke-width="5" stroke="black" stroke-linejoin="round"></path></svg></g></svg></g></svg></g></svg></g><g></g></svg></g></svg></g></svg></g></mask><g mask="url(#86ac0393-50ac-4d29-a576-b4e8cdff851b)"><g><path xmlns="http://www.w3.org/2000/svg" d="M273.715 200.936v-78.717h33.144v94.254c-11.969 9.897-25.894 17.493-41.775 22.786-15.882 5.294-32.454 7.941-49.716 7.941v0c-24.398 0-46.379-5.363-65.943-16.089-19.564-10.68-34.916-25.41-46.057-44.192-11.186-18.736-16.779-39.842-16.779-63.319v0c0-23.477 5.593-44.653 16.779-63.526 11.14-18.874 26.561-33.604 46.264-44.192 19.656-10.588 41.798-15.882 66.426-15.882v0c19.334 0 36.896 3.176 52.686 9.529 15.743 6.307 29.139 15.559 40.187 27.758v0l-21.406 21.406c-19.334-18.644-42.696-27.965-70.086-27.966v0c-18.413 0-34.916 3.959-49.509 11.877-14.639 7.964-26.101 19.012-34.387 33.144-8.286 14.178-12.429 30.129-12.429 47.852v0c0 17.493 4.143 33.305 12.429 47.438 8.286 14.178 19.748 25.295 34.387 33.351 14.593 8.056 30.981 12.084 49.164 12.084v0c21.636 0 40.51-5.179 56.621-15.537z" fill="#1c6e8c" fill-rule="nonzero" stroke="none" stroke-width="1" stroke-linecap="butt" stroke-linejoin="miter" stroke-miterlimit="10" stroke-dasharray="" stroke-dashoffset="0" font-family="none" font-weight="none" font-size="none" text-anchor="none" style="mix-blend-mode: normal" data-fill-palette-color="tertiary"></path></g></g><g transform="matrix(1,0,0,1,0,75.75557928952867)"><svg viewBox="0 0 395.52 95.68884142094265" height="95.68884142094265" width="395.52"><g><svg viewBox="0 0 395.52 95.68884142094265" height="95.68884142094265" width="395.52"><g><svg viewBox="0 0 395.52 95.68884142094265" height="95.68884142094265" width="395.52"><g><svg viewBox="0 0 395.52 95.68884142094265" height="95.68884142094265" width="395.52"><g id="textblocktransform"><svg viewBox="0 0 395.52 95.68884142094265" height="95.68884142094265" width="395.52" id="textblock"><g><svg viewBox="0 0 395.52 95.68884142094265" height="95.68884142094265" width="395.52"><g transform="matrix(1,0,0,1,0,0)"><svg width="395.52" viewBox="-0.5999999046325684 -40.099998474121094 216.3400115966797 53.099998474121094" height="95.68884142094265" data-palette-color="#1c6e8c"><path d="M29.5-6.3L29.5-17.7 34.3-17.7 34.3-4.05Q31.7-1.9 28.25-0.75 24.8 0.4 21.05 0.4L21.05 0.4Q15.75 0.4 11.5-1.93 7.25-4.25 4.83-8.33 2.4-12.4 2.4-17.5L2.4-17.5Q2.4-22.6 4.83-26.7 7.25-30.8 11.53-33.1 15.8-35.4 21.15-35.4L21.15-35.4Q25.35-35.4 28.78-34.02 32.2-32.65 34.6-30L34.6-30 31.5-26.9Q27.3-30.95 21.35-30.95L21.35-30.95Q17.35-30.95 14.18-29.23 11-27.5 9.2-24.43 7.4-21.35 7.4-17.5L7.4-17.5Q7.4-13.7 9.2-10.63 11-7.55 14.18-5.8 17.35-4.05 21.3-4.05L21.3-4.05Q26-4.05 29.5-6.3L29.5-6.3ZM52.8-26.75Q58.3-26.75 61.22-24.05 64.15-21.35 64.15-16L64.15-16 64.15 0 59.6 0 59.6-3.5Q58.4-1.65 56.17-0.68 53.95 0.3 50.9 0.3L50.9 0.3Q46.45 0.3 43.77-1.85 41.1-4 41.1-7.5L41.1-7.5Q41.1-11 43.65-13.13 46.2-15.25 51.75-15.25L51.75-15.25 59.35-15.25 59.35-16.2Q59.35-19.3 57.55-20.95 55.75-22.6 52.25-22.6L52.25-22.6Q49.9-22.6 47.65-21.83 45.4-21.05 43.85-19.75L43.85-19.75 41.85-23.35Q43.9-25 46.75-25.88 49.6-26.75 52.8-26.75L52.8-26.75ZM51.7-3.4Q54.45-3.4 56.45-4.63 58.45-5.85 59.35-8.1L59.35-8.1 59.35-11.8 51.95-11.8Q45.85-11.8 45.85-7.7L45.85-7.7Q45.85-5.7 47.4-4.55 48.95-3.4 51.7-3.4L51.7-3.4ZM93.4-37.1L98.2-37.1 98.2 0 93.6 0 93.6-4.2Q92-2 89.55-0.85 87.1 0.3 84.15 0.3L84.15 0.3Q80.3 0.3 77.25-1.4 74.2-3.1 72.47-6.18 70.75-9.25 70.75-13.25L70.75-13.25Q70.75-17.25 72.47-20.3 74.2-23.35 77.25-25.05 80.3-26.75 84.15-26.75L84.15-26.75Q87-26.75 89.4-25.68 91.8-24.6 93.4-22.5L93.4-22.5 93.4-37.1ZM84.55-3.9Q87.05-3.9 89.1-5.08 91.15-6.25 92.3-8.38 93.45-10.5 93.45-13.25L93.45-13.25Q93.45-16 92.3-18.13 91.15-20.25 89.1-21.4 87.05-22.55 84.55-22.55L84.55-22.55Q82-22.55 79.97-21.4 77.95-20.25 76.77-18.13 75.6-16 75.6-13.25L75.6-13.25Q75.6-10.5 76.77-8.38 77.95-6.25 79.97-5.08 82-3.9 84.55-3.9L84.55-3.9ZM128.09-26.5L132.64-26.5 132.64-3.6Q132.64 3.35 129.19 6.68 125.74 10 118.89 10L118.89 10Q115.14 10 111.74 8.97 108.34 7.95 106.24 6.05L106.24 6.05 108.54 2.35Q110.39 3.95 113.12 4.88 115.84 5.8 118.74 5.8L118.74 5.8Q123.39 5.8 125.62 3.6 127.84 1.4 127.84-3.1L127.84-3.1 127.84-5.2Q126.14-3.15 123.67-2.13 121.19-1.1 118.29-1.1L118.29-1.1Q114.49-1.1 111.42-2.73 108.34-4.35 106.59-7.28 104.84-10.2 104.84-13.95L104.84-13.95Q104.84-17.7 106.59-20.63 108.34-23.55 111.42-25.15 114.49-26.75 118.29-26.75L118.29-26.75Q121.29-26.75 123.87-25.65 126.44-24.55 128.09-22.4L128.09-22.4 128.09-26.5ZM118.84-5.3Q121.44-5.3 123.52-6.4 125.59-7.5 126.77-9.47 127.94-11.45 127.94-13.95L127.94-13.95Q127.94-17.8 125.39-20.18 122.84-22.55 118.84-22.55L118.84-22.55Q114.79-22.55 112.24-20.18 109.69-17.8 109.69-13.95L109.69-13.95Q109.69-11.45 110.87-9.47 112.04-7.5 114.12-6.4 116.19-5.3 118.84-5.3L118.84-5.3ZM165.74-13.1Q165.74-12.55 165.64-11.65L165.64-11.65 144.14-11.65Q144.59-8.15 147.22-6.03 149.84-3.9 153.74-3.9L153.74-3.9Q158.49-3.9 161.39-7.1L161.39-7.1 164.04-4Q162.24-1.9 159.56-0.8 156.89 0.3 153.59 0.3L153.59 0.3Q149.39 0.3 146.14-1.43 142.89-3.15 141.12-6.25 139.34-9.35 139.34-13.25L139.34-13.25Q139.34-17.1 141.06-20.2 142.79-23.3 145.81-25.03 148.84-26.75 152.64-26.75L152.64-26.75Q156.44-26.75 159.42-25.03 162.39-23.3 164.06-20.2 165.74-17.1 165.74-13.1L165.74-13.1ZM152.64-22.7Q149.19-22.7 146.87-20.6 144.54-18.5 144.14-15.1L144.14-15.1 161.14-15.1Q160.74-18.45 158.42-20.58 156.09-22.7 152.64-22.7L152.64-22.7ZM185.79-5L187.29-1.55Q186.24-0.65 184.69-0.18 183.14 0.3 181.49 0.3L181.49 0.3Q177.49 0.3 175.29-1.85 173.09-4 173.09-8L173.09-8 173.09-22.55 168.59-22.55 168.59-26.5 173.09-26.5 173.09-32.3 177.89-32.3 177.89-26.5 185.49-26.5 185.49-22.55 177.89-22.55 177.89-8.2Q177.89-6.05 178.96-4.9 180.04-3.75 182.04-3.75L182.04-3.75Q184.24-3.75 185.79-5L185.79-5ZM196.69-3.95L212.74-3.95 212.74 0 190.54 0 190.54-3.1 206.19-22.55 190.84-22.55 190.84-26.5 212.34-26.5 212.34-23.35 196.69-3.95Z" opacity="1" transform="matrix(1,0,0,1,0,0)" fill="#1c6e8c" class="wordmark-text-0" data-fill-palette-color="primary" id="text-0"></path></svg></g></svg></g></svg></g></svg></g><g></g></svg></g></svg></g></svg></g></svg></g><defs></defs></svg><rect width="395.52" height="247.2" fill="none" stroke="none" visibility="hidden"></rect></g></svg></g></svg>